# xmcd
#
# Track frame offsets: 
#        150
#        10424
#        33559
#        47680
#        73479
#        87407
#        104840
#        112476
#        118760
#        154873
#        190591
#        214208
#        233446
#        249203
#        267481
#        292400
#        308768
#
# Disc length: 4364 seconds
#
# Revision: 0
# Processed by: cddbd v1.5.2PL0 Copyright (c) Steve Scherf et al.
# Submitted via: ExactAudioCopy v0.99pb3
#
DISCID=08110a11
DTITLE=Jacques Berndorf Christian Willisohn - Samiras Blues
DYEAR=2009
DGENRE=Blues
TTITLE0=Samiras Blues
TTITLE1=Wer ist dieser Vater
TTITLE2=Just A Little Bit Of Love
TTITLE3=Liebe Brot der Armen
TTITLE4=Runaway Child
TTITLE5=Gegen den Strom
TTITLE6=Cyprus House
TTITLE7=Märchenprinzessin
TTITLE8=Kein Vater im Märchen
TTITLE9=Beirut
TTITLE10=Manchmal einen Joint
TTITLE11=I Can't Sleep
TTITLE12=Welcome Home
TTITLE13=Tod und neues Leben
TTITLE14=How Could I
TTITLE15=Die neue Chance: Mikkel
TTITLE16=Samiras Blues
EXTD=Hörbuch mit Musik
EXTT0=
EXTT1=
EXTT2=
EXTT3=
EXTT4=
EXTT5=
EXTT6=
EXTT7=
EXTT8=
EXTT9=
EXTT10=
EXTT11=
EXTT12=
EXTT13=
EXTT14=
EXTT15=
EXTT16=
PLAYORDER=
